<?xml version="1.0" encoding="UTF-8"?>
<!DOCTYPE svg PUBLIC "-//W3C//DTD SVG 1.1//EN" "http://www.w3.org/Graphics/SVG/1.1/DTD/svg11.dtd">
<!-- Creator: CorelDRAW 2020 (64-Bit) -->
<svg xmlns="http://www.w3.org/2000/svg" xml:space="preserve" width="50px" height="58px" version="1.1" style="shape-rendering:geometricPrecision; text-rendering:geometricPrecision; image-rendering:optimizeQuality; fill-rule:evenodd; clip-rule:evenodd"
viewBox="0 0 0.53 0.61"
 xmlns:xlink="http://www.w3.org/1999/xlink"
 xmlns:xodm="http://www.corel.com/coreldraw/odm/2003">
 <defs>
  <style type="text/css">
   <![CDATA[
    .fil5 {fill:#00853F;fill-rule:nonzero}
    .fil7 {fill:#0698D6;fill-rule:nonzero}
    .fil6 {fill:#5B57A2;fill-rule:nonzero}
    .fil4 {fill:#78B72A;fill-rule:nonzero}
    .fil0 {fill:#8F4794;fill-rule:nonzero}
    .fil1 {fill:#E40646;fill-rule:nonzero}
    .fil3 {fill:#EF8019;fill-rule:nonzero}
    .fil2 {fill:#F9B429;fill-rule:nonzero}
   ]]>
  </style>
 </defs>
 <g id="Слой_x0020_1">
  <metadata id="CorelCorpID_0Corel-Layer"/>
  <g id="_1699686996528">
   <g>
    <g>
     <g>
      <polygon class="fil0" points="0.15,0.3 0.07,0.35 0,0.48 0.3,0.3 "/>
     </g>
    </g>
    <g>
     <g>
      <polygon class="fil1" points="0.38,0.17 0.3,0.22 0.23,0.35 0.53,0.17 "/>
     </g>
    </g>
    <g>
     <g>
      <polygon class="fil2" points="0.3,0.13 0.23,0 0.23,0.26 0.23,0.35 0.23,0.61 0.3,0.48 "/>
     </g>
    </g>
    <g>
     <g>
      <polygon class="fil3" points="0.23,0 0.3,0.13 0.38,0.17 0.53,0.17 "/>
     </g>
    </g>
    <g>
     <g>
      <polygon class="fil4" points="0.23,0.26 0.23,0.61 0.3,0.48 0.3,0.39 "/>
     </g>
    </g>
    <g>
     <g>
      <polygon class="fil5" points="0.38,0.43 0.3,0.48 0.23,0.61 0.53,0.43 "/>
     </g>
    </g>
    <g>
     <g>
      <polygon class="fil6" points="0,0.13 0,0.48 0.07,0.35 0.07,0.26 "/>
     </g>
    </g>
    <g>
     <g>
      <polygon class="fil7" points="0.23,0.26 0.23,0.26 0,0.13 0.07,0.26 0.38,0.43 0.53,0.43 "/>
     </g>
    </g>
   </g>
  </g>
 </g>
</svg>
