<!-- icon666.com - MILLIONS OF FREE VECTOR ICONS --><svg id="Layer_1" enable-background="new 0 0 512 512" viewBox="0 0 512 512" xmlns="http://www.w3.org/2000/svg"><g id="XMLID_1_"><g id="XMLID_3271_"><path id="XMLID_1205_" d="m302 72.5v-57.3c0-5.6 4.6-10.2 10.2-10.2h25.7c5.6 0 10.2 4.6 10.2 10.2v57.3z" fill="#993e29"></path><path id="XMLID_1207_" d="m94 85 23.7-50h276.6l23.7 50v25h-324z" fill="#993e29"></path><path id="XMLID_2224_" d="m94 85 23.7-50h184.3l23 50v25h-231z" fill="#b1614a"></path><path id="XMLID_2225_" d="m136 85 23.8-50h49.2l-19.4 50v25h-53.6z" fill="#d37762"></path><path id="XMLID_1206_" d="m418 135-23.7 372h-276.6l-23.7-372v-25h324z" fill="#747e6c"></path><g id="XMLID_2484_" fill="#c4c1ab"><path id="XMLID_2485_" d="m339.9 354 6.6-145.7c.9-19.3-14.5-35.3-33.8-35.3h-216.3l11.6 181z"></path><path id="XMLID_2486_" d="m112.2 421 5.5 86h215.3l3.9-86z"></path></g><path id="XMLID_1204_" d="m66 85h380v50h-380z" fill="#b1614a"></path><path id="XMLID_2144_" d="m348 85h98v50h-98z" fill="#993e29"></path><path id="XMLID_2198_" d="m113.3 85h50v50h-50z" fill="#d37762"></path><path id="XMLID_1203_" d="m93.9 406-12.9-190h350l-12.9 190z" fill="#eda900"></path><path id="XMLID_2297_" d="m93.9 406-12.9-190h290l-12.9 190z" fill="#f8d707"></path><ellipse id="XMLID_1047_" cx="256" cy="311" fill="#b1614a" rx="41" ry="53" transform="matrix(.707 .707 -.707 .707 294.891 -89.93)"></ellipse><path id="XMLID_637_" d="m302.5 290.7c-.8-3.7-2-7.1-3.8-10.3l-14.6 14.6c-7.3 7.3-17.4 11.3-27.7 10.8-13.1-.5-26 4.5-35.2 13.8l-11.7 11.7c.8 3.7 2 7.1 3.8 10.3l14.9-14.9c7.3-7.3 17.4-11.3 27.7-10.8 13.1.5 26-4.5 35.2-13.8z" fill="#993e29"></path></g><g id="XMLID_2986_"><g id="XMLID_1943_"><path id="XMLID_2868_" d="m418 90h-324c-1.7 0-3.3-.9-4.2-2.3s-1-3.3-.3-4.8l23.8-50c.8-1.7 2.6-2.9 4.5-2.9h276.5c1.9 0 3.7 1.1 4.5 2.9l23.8 50c.7 1.5.6 3.4-.3 4.8-1 1.4-2.5 2.3-4.3 2.3zm-316.1-10h308.2l-19-40h-270.2z" fill="#060d1a"></path></g><g id="XMLID_516_"><path id="XMLID_2865_" d="m348 40h-46c-2.8 0-5-2.2-5-5v-19.8c0-8.4 6.8-15.2 15.2-15.2h25.7c8.4 0 15.2 6.8 15.2 15.2v19.8c-.1 2.8-2.3 5-5.1 5zm-41-10h36v-14.8c0-2.8-2.3-5.2-5.2-5.2h-25.7c-2.8 0-5.2 2.3-5.2 5.2v14.8z" fill="#060d1a"></path></g><g id="XMLID_1942_"><path id="XMLID_2862_" d="m446 140h-380c-2.8 0-5-2.2-5-5v-50c0-2.8 2.2-5 5-5h380c2.8 0 5 2.2 5 5v50c0 2.8-2.2 5-5 5zm-375-10h370v-40h-370z" fill="#060d1a"></path></g><g id="XMLID_1947_"><path id="XMLID_2710_" d="m214.6 340.3-7.1-7.1 13.6-13.6c9.3-9.3 22.1-14.3 35.2-13.8 10.3.4 20.4-3.5 27.7-10.8l13.3-13.3 7.1 7.1-13.3 13.3c-9.3 9.3-22.1 14.3-35.2 13.8-10.3-.4-20.4 3.5-27.7 10.8z" fill="#060d1a"></path></g><g id="XMLID_1946_"><path id="XMLID_2540_" d="m244 363.4c-11.4 0-21.5-3.9-29-11.4-17.9-17.9-14.1-50.9 8.5-73.5 10.8-10.8 24.2-17.7 37.9-19.4 14.1-1.8 26.8 2.1 35.6 10.9 8.9 8.9 12.8 21.5 10.9 35.6-1.7 13.6-8.6 27.1-19.4 37.9-10.8 10.8-24.2 17.7-37.9 19.4-2.2.3-4.5.5-6.6.5zm24-94.8c-1.7 0-3.5.1-5.3.3-11.5 1.5-22.9 7.4-32.1 16.6-18.7 18.7-22.5 45.4-8.5 59.4 6.6 6.6 16.3 9.5 27.3 8.1 11.5-1.5 22.9-7.4 32.1-16.6 9.2-9.2 15.1-20.6 16.6-32.1 1.4-11-1.5-20.7-8.1-27.3-5.6-5.5-13.3-8.4-22-8.4z" fill="#060d1a"></path></g><g id="XMLID_932_"><path id="XMLID_2082_" d="m409.6 154.9h10v61.1h-10z" fill="#060d1a" transform="matrix(.998 .067 -.067 .998 13.442 -27.517)"></path></g><g id="XMLID_514_"><path id="XMLID_2081_" d="m56.1 170.5h81.2v10h-81.2z" fill="#060d1a" transform="matrix(.067 .998 -.998 .067 265.285 67.2)"></path></g><g id="XMLID_937_"><path id="XMLID_2019_" d="m394.3 512h-276.6c-2.7 0-4.8-2.1-5-4.7l-5.2-96.3h-13.6c-2.6 0-4.8-2-5-4.7l-12.9-190c-.1-1.4.4-2.7 1.3-3.8.9-1 2.3-1.6 3.7-1.6h350c1.4 0 2.7.6 3.7 1.6.9 1 1.4 2.4 1.3 3.8l-12.9 190c-.2 2.6-2.4 4.7-5 4.7h-13.6l-5.2 96.3c-.2 2.6-2.4 4.7-5 4.7zm-271.8-10h267.1l4.9-91h-262.2v-10h281.2l12.2-180h-339.3l12.2 180h13.7c2.7 0 4.8 2.1 5 4.7z" fill="#060d1a"></path></g></g></g></svg>